<?xml version="1.0" encoding="utf-8"?>
<!-- Generator: Adobe Illustrator 16.2.1, SVG Export Plug-In . SVG Version: 6.00 Build 0)  -->
<!DOCTYPE svg PUBLIC "-//W3C//DTD SVG 1.1//EN" "http://www.w3.org/Graphics/SVG/1.1/DTD/svg11.dtd">

<svg version="1.1" id="Layer_1" xmlns="http://www.w3.org/2000/svg" xmlns:xlink="http://www.w3.org/1999/xlink" x="0px" y="0px"
	 width="362.982px" height="338.984px" viewBox="0 0 362.982 338.984" enable-background="new 0 0 362.982 338.984"
	 xml:space="preserve">
<g id="group">

	<path style="fill:white;" fill-rule="evenodd" clip-rule="evenodd" d="M330.718,141.953c0,19.531,0,39.037,0,59.246
		c-4.176-0.215-7.268-0.566-10.352-0.498c-11.635,0.254-23.271,0.529-34.891,1.121c-1.576,0.08-3.486,1.703-4.49,3.137
		c-1.984,2.84-3.414,6.062-5.127,9.098c-2.775,4.916-7.227,6.953-12.645,7.691c-1.666,0.227-3.629,1.258-4.686,2.551
		c-16.238,19.893-37.602,26.499-62.279,23.575c-7.609-0.902-12.99,0.5-18.58,6.211c-11.859,12.117-24.666,23.322-41.748,27.842
		c-12.438,3.291-24.564,1.859-35.875-3.762c-17.332-8.617-16.941-24.08-3.197-35.447c6.096-5.041,13.363-8.648,19.988-13.071
		c4.084-2.727,7.963-5.764,12.959-9.41c-11.105-0.945-20.771-1.539-30.381-2.637c-17.072-1.951-33.918-5.006-48.91-14.104
		c-9.238-5.607-16.197-13.1-17.939-24.355c-1.598-10.307,3.227-19.215,12.904-23.244c8.801-3.664,18.078-4.221,27.432-3.43
		c17.531,1.48,35.045,3.156,52.568,4.713c1.602,0.143,3.227,0.02,5.76,0.02c-9.596-7.498-18.701-14.004-27.107-21.316
		c-13.965-12.148-27.652-24.844-34.109-42.829c-2.283-6.356-3.244-13.593-2.988-20.359c0.4-10.55,6.273-15.451,16.926-15.436
		c13.666,0.02,25.459,5.595,36.346,13.327c14.199,10.085,28.215,20.432,42.506,30.384c7.219,5.026,14.734,9.867,23.955,10.241
		c3.76,0.152,7.566-0.259,11.318-0.706c2.596-0.31,3.691-1.825,3.844-4.764c0.627-12.159,3.688-23.563,11.469-33.332
		c9.65-12.117,22.652-16.862,37.627-17.089c3.783-0.058,7.635,0.408,11.357,1.129c9.553,1.85,13.031,6.182,12.201,18.23
		c-0.604,8.728-5.145,15.514-10.455,22.069c-9.703,11.978-8.721,25.926-6.639,39.912c0.168,1.127,2.141,2.719,3.393,2.836
		c10.539,0.986,21.094,2.035,31.666,2.363C305.144,142.252,317.769,141.953,330.718,141.953z M190.251,179.596
		c1.918,0.799,3.828,1.617,5.756,2.393c12.863,5.17,26.037,8.377,39.842,4.564c13.084-3.613,19.107-14.416,15.5-27.311
		c-1.428-5.102-3.617-9.988-5.037-15.09c-5.738-20.623-3.906-39.934,9.625-57.486c2.807-3.641,4.07-8.506,5.867-12.88
		c1.291-3.143-0.52-4.259-3.348-5.214c-15.449-5.222-35.834,3.024-42.881,17.766c-1.99,4.164-3.627,8.588-4.734,13.063
		c-2.119,8.57-3.744,17.263-5.328,24.741c-2.059-0.569-3.963-1.712-5.67-1.47c-14.688,2.082-28.119-1.233-40.301-9.392
		c-17.498-11.72-34.812-23.717-52.205-35.596c-6.902-4.714-14.342-7.561-22.896-7.077c-3.521,0.199-5.352,1.028-5.273,5.217
		c0.154,8.492,2.732,16.166,7.582,22.831c10.398,14.289,22.232,27.393,36.412,38.01c6.301,4.717,13.684,7.981,20.529,11.983
		c3.771,2.205,6.607,5.064,6.09,9.963c-0.494,4.678-3.215,7.709-7.445,9.08c-3.268,1.059-6.84,2.066-10.191,1.838
		c-16.887-1.158-33.75-2.678-50.611-4.174c-9.922-0.881-19.906-2.484-29.463,1.713c-9.162,4.023-10.473,10.119-4.295,18.123
		c6.117,7.928,14.879,11.639,23.938,14.451c23.824,7.396,48.127,9.355,72.848,5.385c5.957-0.957,11.455,0.217,16.395,4.555
		c-0.98,1.064-1.637,2.033-2.52,2.701c-16.541,12.488-33.121,24.926-49.662,37.413c-2.512,1.898-5.17,3.729-7.248,6.049
		c-3.555,3.967-2.875,7.744,1.85,10.111c12.186,6.102,24.629,7.598,37.34,1.395c12.215-5.961,21.258-15.775,31.213-25.268
		c-2.588-1.932-4.918-3.67-7.928-5.914c6.404,1.361,11.664,2.949,17.031,3.535c16.57,1.805,32.387-1.918,47.764-7.653
		c16.572-6.18,23.732-20.311,28.945-35.746c0.586-1.73-0.275-5.094-1.621-6.016c-1.363-0.934-4.316-0.195-6.289,0.559
		c-3.533,1.348-6.689,3.871-10.289,4.83C219.884,200.812,204.46,191.988,190.251,179.596z M263.38,155.902
		c-0.426,8.053-0.832,15.717-1.203,22.75c2.875,4.352,5.682,8.6,8.527,12.91C271.64,179.033,271.144,166.873,263.38,155.902z"/>
	<path fill-rule="evenodd" clip-rule="evenodd" fill="none" d="M190.251,179.596c14.209,12.393,29.633,21.217,49.289,15.982
		c3.6-0.959,6.756-3.482,10.289-4.83c1.973-0.754,4.926-1.492,6.289-0.559c1.346,0.922,2.207,4.285,1.621,6.016
		c-5.213,15.436-12.373,29.566-28.945,35.746c-15.377,5.735-31.193,9.458-47.764,7.653c-5.367-0.586-10.627-2.174-17.031-3.535
		c3.01,2.244,5.34,3.982,7.928,5.914c-9.955,9.492-18.998,19.307-31.213,25.268c-12.711,6.203-25.154,4.707-37.34-1.395
		c-4.725-2.367-5.404-6.145-1.85-10.111c2.078-2.32,4.736-4.15,7.248-6.049c16.541-12.486,33.121-24.924,49.662-37.413
		c0.883-0.668,1.539-1.637,2.52-2.701c-4.939-4.338-10.438-5.512-16.395-4.555c-24.721,3.971-49.023,2.012-72.848-5.385
		c-9.059-2.812-17.82-6.523-23.938-14.451c-6.178-8.004-4.867-14.1,4.295-18.123c9.557-4.197,19.541-2.594,29.463-1.713
		c16.861,1.496,33.725,3.016,50.611,4.174c3.352,0.229,6.924-0.779,10.191-1.838c4.23-1.371,6.951-4.402,7.445-9.08
		c0.518-4.898-2.318-7.758-6.09-9.963c-6.846-4.002-14.229-7.266-20.529-11.983c-14.18-10.617-26.014-23.721-36.412-38.01
		c-4.85-6.665-7.428-14.339-7.582-22.831c-0.078-4.189,1.752-5.019,5.273-5.217c8.555-0.483,15.994,2.363,22.896,7.077
		c17.393,11.879,34.707,23.876,52.205,35.596c12.182,8.158,25.613,11.473,40.301,9.392c1.707-0.242,3.611,0.9,5.67,1.47
		c1.584-7.478,3.209-16.171,5.328-24.741c1.107-4.476,2.744-8.9,4.734-13.063c7.047-14.742,27.432-22.988,42.881-17.766
		c2.828,0.956,4.639,2.071,3.348,5.214c-1.797,4.374-3.061,9.239-5.867,12.88c-13.531,17.552-15.363,36.863-9.625,57.486
		c1.42,5.102,3.609,9.988,5.037,15.09c3.607,12.895-2.416,23.697-15.5,27.311c-13.805,3.812-26.979,0.605-39.842-4.564
		C194.079,181.213,192.169,180.395,190.251,179.596z"/>
	<path fill-rule="evenodd" clip-rule="evenodd" fill="none" d="M263.38,155.902c7.764,10.971,8.26,23.131,7.324,35.66
		c-2.846-4.311-5.652-8.559-8.527-12.91C262.548,171.619,262.954,163.955,263.38,155.902z"/>
</g>
</svg>
