<?xml version="1.0" encoding="utf-8"?>
<!-- Generator: Adobe Illustrator 16.2.1, SVG Export Plug-In . SVG Version: 6.00 Build 0)  -->
<!DOCTYPE svg PUBLIC "-//W3C//DTD SVG 1.1//EN" "http://www.w3.org/Graphics/SVG/1.1/DTD/svg11.dtd">
<svg version="1.1" id="Layer_1" xmlns="http://www.w3.org/2000/svg" xmlns:xlink="http://www.w3.org/1999/xlink" x="0px" y="0px"
	 width="362.982px" height="338.984px" viewBox="0 0 362.982 338.984" enable-background="new 0 0 362.982 338.984"
	 xml:space="preserve">
<path fill-rule="evenodd" clip-rule="evenodd" d="M301.051,222.162c-0.309,0.103-0.646,0.344-0.92,0.287
	c-10.35-2.155-15.393,3.122-19.914,11.912c-3.766,7.324-9.598,14.049-15.836,19.538c-11.74,10.328-22.305,10.916-35.521,2.686
	c-4.859-3.025-8.412-2.9-13.422-0.547c-19.902,9.354-40.588,16.348-62.691,18.32c-30.92,2.758-57.311-7.232-79.18-28.925
	c-9.707-9.631-12.643-22.345-13.262-35.583c-0.449-9.646,0.936-19.06,2.643-28.628c1.432-8.018,0.209-16.866-1.469-25.011
	c-4.24-20.597,1.717-37.595,16.049-52.307c2.648-2.717,5.367-5.598,7.139-8.895c9.336-17.389,24.973-25.333,43.344-28.454
	c10.227-1.736,20.75-1.769,31.152-2.352c2.086-0.117,4.666,0.133,6.262,1.273c5.535,3.961,11.115,2.255,17.018,1.378
	c23.307-3.461,44.918,0.634,62.51,17.242c14.695,13.875,20.271,30.911,13.506,50.741c-1.127,3.304-0.328,4.665,2.449,6.255
	c9.709,5.556,17.432,13.093,22.576,23.204c0.688,1.349,2.922,1.912,4.449,2.822c0.123,0.073,0.328,0,0.494,0.011
	c4.596,0.325,10.641-0.959,13.346,1.471c2.305,2.07,0.891,8.417,0.91,12.872c0.062,13.451,0.023,26.902,0.023,40.354
	C302.152,221.938,301.602,222.05,301.051,222.162z M207.703,177.85c-20.502-5.517-40.561-10.834-50.643-31.801
	c4.797,2.275,9.219,5.14,13.639,8.007c9.059,5.875,18.037,11.833,28.811,14.351c9.459,2.212,9.342,2.324,14.225-6.215
	c6.443-11.272,14.277-20.907,28.168-23.28c1.031-0.176,2.17-1.539,2.686-2.623c4.869-10.239,6.195-20.781,1.049-31.238
	c-8.35-16.962-23.244-24.333-41.096-26.928c-7.375-1.073-14.676-0.699-22.127,2.416c2.424,2.562,4.932,4.901,7.877,6.348
	c3.848,1.89,8.139,2.858,12.057,4.624c3.529,1.589,7.09,3.484,7.441,8.682c-18.721-4.077-37.117-6.088-55.668-0.812
	c-0.236-0.665-0.471-1.33-0.707-1.995c6.25-3.755,12.5-7.51,18.832-11.314c-2.518-4.87-7.199-7.518-12.652-8.967
	c-12.205-3.244-24.082-0.962-35.746,2.686c-9.049,2.83-18.025,5.951-24.061,14.094c-5.025,6.782-9.807,13.808-15.424,20.074
	C73.1,126.523,69.752,140.81,73.469,157.002c2.221,9.671,2.807,19.177,0.455,29.085c-1.742,7.338-2.232,15.154-2.035,22.724
	c0.238,9.143,1.682,18.456,7.812,25.795c13.68,16.374,32.039,24.456,52.637,27.405c19.898,2.852,38.963-1.498,57.551-8.574
	c8.807-3.351,17.855-6.089,25.172-12.501c-2.393-5.861-4.713-11.54-7.031-17.219c0.523-0.283,1.047-0.565,1.57-0.847
	c0.951,1.026,1.93,2.029,2.85,3.083c5.127,5.873,9.801,12.227,15.465,17.524c7.881,7.372,19.73,8.366,27.648,2.811
	c8.734-6.13,13.643-15.047,17.504-25.701c-4.254,0-7.893,0.321-11.451-0.071c-6.402-0.705-11.52,0.174-12.67,7.802
	c-0.033,0.222-0.49,0.38-1.76,1.299c-2.836-3.132-6.514-5.952-8.559-9.67c-7.637-13.897-8.02-28.567-2.572-43.266
	c2.922-7.881,8.244-13.557,15.953-14.354c1.939,2.388,3.129,5.302,4.746,5.562c4.299,0.689,8.783,0.234,14.561,0.234
	c-3.26-4.477-5.467-8.184-8.32-11.298c-8.777-9.583-21.021-10.432-31.254-2.402c-8.832,6.932-12.916,17.051-17.686,26.684
	c-2.518,5.087-4.844,10.27-7.256,15.409c-0.492-0.125-0.986-0.251-1.479-0.377c0.174-3.052,0.176-6.127,0.57-9.151
	C206.289,183.929,207.078,180.921,207.703,177.85z"/>
<path fill-rule="evenodd" clip-rule="evenodd" d="M152.402,219.823c13.545-1.903,27.811-3.907,41.701-5.859
	C190.324,223.552,164.139,227.263,152.402,219.823z"/>
<path fill-rule="evenodd" clip-rule="evenodd" d="M160.459,197.554c10.488,1.327,20.715,2.621,30.848,3.902
	C186.076,206.707,167.748,203.445,160.459,197.554z"/>
</svg>
