<?xml version="1.0" encoding="utf-8"?>
<!-- Generator: Adobe Illustrator 16.2.1, SVG Export Plug-In . SVG Version: 6.00 Build 0)  -->
<!DOCTYPE svg PUBLIC "-//W3C//DTD SVG 1.1//EN" "http://www.w3.org/Graphics/SVG/1.1/DTD/svg11.dtd">
<svg version="1.1" id="Layer_1" xmlns="http://www.w3.org/2000/svg" xmlns:xlink="http://www.w3.org/1999/xlink" x="0px" y="0px"
	 width="362.982px" height="338.984px" viewBox="0 0 362.982 338.984" enable-background="new 0 0 362.982 338.984"
	 xml:space="preserve">
<g>
	<path fill-rule="evenodd" clip-rule="evenodd" d="M84.958,203.679c-16.643,6.242-25.436-7.488-26.936-22.92
		c-0.52-5.344,0.965-10.863,1.225-16.316c0.08-1.652-0.334-4.004-1.443-4.934c-8.906-7.457-18.053-14.629-27.086-21.939
		c-3.223-2.607-5.322-5.365-3.439-10.107c6.492-16.346,12.646-32.828,19.482-50.705c10.123,9.969,19.721,19.422,29.236,28.793
		c3.545-4.047,6.631-8.162,10.318-11.643c5.309-5.014,11.516-7.062,18.785-4.031c1.244,0.52,3.268,0.482,4.381-0.199
		c22.273-13.605,46.02-14.859,70.6-8.379c9.766,2.576,19.342,5.871,29.045,8.697c16.352,4.762,32.451,3.514,48.539-1.711
		c11.334-3.68,22.803-7.068,34.408-9.738c5.369-1.234,11.271-1.051,16.814-0.441c14.176,1.559,21.529,12.852,18.574,27.906
		c-2.232,11.387-7.604,21.168-15.637,29.512c-8.613,8.949-19.969,10.848-31.49,11.695c-7.896,0.582-15.871,0.111-24.164,1.188
		c3.088,1.492,6.141,3.061,9.268,4.467c16.418,7.377,33.473,12.727,51.225,15.727c9.125,1.541,16.842,4.92,18.939,14.943
		c2.27,10.844-0.057,20.525-8.973,27.876c-9.602,7.914-20.955,9.516-32.854,8.68c-22.645-1.592-43.082-10.391-63.346-19.693
		c-1.652-0.758-3.27-1.594-5.373-2.621c1.092,6.883,2.648,13.296,2.998,19.777c0.422,7.881,0.646,15.957-0.664,23.676
		c-0.684,4.025-4.088,8.525-7.559,10.992c-23.996,17.062-50.4,11.383-68.641-10.18c-3.84-4.541-7.322-9.43-10.543-14.434
		c-1.676-2.604-3.701-2.803-6.295-2.785c-14.354,0.102-27.674-3.121-39.014-12.473C92.019,209.618,88.731,206.835,84.958,203.679z
		 M104.851,140.323c0-7.627,0.436-15.916-0.162-24.129c-0.361-4.986-2.166-9.9-3.619-14.758c-0.924-3.088-3.41-3.152-5.484-1.371
		c-3.486,2.992-6.9,6.143-9.881,9.625c-2.9,3.391-2.352,6.404,1.768,9.012c2.191,1.389,4.707,3.836,5.146,6.168
		c2.643,14.045,0.787,27.502-7.4,39.547c-4.467,6.57-9.141,7.482-16.807,2.975c0,6.711-0.301,12.725,0.109,18.688
		c0.254,3.676,1.76,6.863,6.086,8.176c4.379,1.33,7.881-0.17,10.17-3.193c3.76-4.971,6.826-10.488,9.936-15.92
		c1.469-2.564,2.357-5.459,3.51-8.205c0.955,2.402,1.113,4.574,0.592,6.57c-1.301,4.961-3.455,9.762-4.211,14.785
		c-0.523,3.475-0.607,8.369,1.381,10.645c10.428,11.929,24.381,15.621,39.506,15.443c0.434-0.799,0.693-1.072,0.732-1.375
		c1.824-14.646,3.297-16.267,17.209-19.531c1.236-0.291,2.957-1.314,3.24-2.334c0.809-2.926,0.996-6.025,1.453-9.238
		c-23.238,3.77-38.49-2.809-40.088-17.25c1.148,0.596,2.209,0.98,3.078,1.621c20.086,14.838,35.932,7.27,49.484-4.49
		c2.238-1.943,4.531-3.822,7.52-6.336c-0.547,3.115-0.895,5.092-1.342,7.646c3.131-0.881,5.463-1.539,7.797-2.197
		c0.219,0.42,0.438,0.84,0.656,1.262c-1.816,1.58-3.469,3.424-5.482,4.693c-6.9,4.35-11.453,10.477-12.121,18.496
		c-0.639,7.678-0.479,15.52,0.328,23.186c0.607,5.779,2.654,11.978,9.27,13.492c6.873,1.572,11.525-3.428,14.699-8.385
		c6.871-10.732,13.242-21.826,19.141-33.125c3.695-7.078,3.604-14.805-0.408-21.996c-3.389-6.076-6.807-12.172-10.742-17.895
		c-3.879-5.641-8.422-10.824-13.049-16.682c6.186,0.318,9.834,3.59,12.945,7.588c4.869,6.254,10.723,8.25,18.801,6.873
		c7.928-1.35,16.178-0.961,24.289-1.039c12.629-0.119,25.277,0.471,37.883-0.064c20.369-0.867,31.807-15.398,36.75-29.607
		c3.955-11.371-2.729-19.551-14.799-19.9c-10.021-0.293-19.35,2.355-28.736,5.287c-11.059,3.455-22.045,7.713-33.396,9.518
		c-18.094,2.879-35.807-1.299-52.682-7.666c-15.967-6.025-32.203-8.549-48.904-6.01c-22.611,3.439-26.201,7.979-28.084,23.869
		c-0.117,0.988-0.053,1.998-0.123,2.992C110.194,124.591,108.556,133.134,104.851,140.323z M216.044,147.7
		c0,0.781-0.061,0.977,0.008,1.105c5.361,10.236,8.889,20.711,5.018,32.438c-0.268,0.814,1.291,2.828,2.445,3.42
		c7.965,4.094,15.814,8.562,24.145,11.754c12.639,4.842,25.449,9.467,38.535,12.824c11.371,2.916,22.816,1.208,32.922-5.459
		c5.59-3.689,8.314-9.049,6.975-15.852c-1.252-6.357-6.562-7.797-11.822-9.062c-8.043-1.936-16.43-2.928-24.096-5.838
		c-20.252-7.684-40.256-16.037-60.215-24.465C225.22,146.565,220.87,146.265,216.044,147.7z M211.72,200.03
		c-1.459,2.072-2.426,3.361-3.305,4.707c-4.18,6.39-7.916,13.121-12.592,19.119c-7.746,9.938-24.834,12.293-32.209-1.297
		c-3.201-5.895-5.484-12.287-8.199-18.484c-7.85-0.158-11.186,3.596-8.309,10.775c2.314,5.771,5.928,11.084,9.375,16.33
		c10.768,16.395,26.689,20.973,45.111,18.566c10.9-1.424,16.98-9.428,17.334-20.348C219.255,219.286,215.954,210.229,211.72,200.03z
		"/>
	<path fill-rule="evenodd" clip-rule="evenodd" fill="none" d="M104.851,140.323c3.705-7.189,5.344-15.732,5.957-24.541
		c0.07-0.994,0.006-2.004,0.123-2.992c1.883-15.891,5.473-20.43,28.084-23.869c16.701-2.539,32.938-0.016,48.904,6.01
		c16.875,6.367,34.588,10.545,52.682,7.666c11.352-1.805,22.338-6.062,33.396-9.518c9.387-2.932,18.715-5.58,28.736-5.287
		c12.07,0.35,18.754,8.529,14.799,19.9c-4.943,14.209-16.381,28.74-36.75,29.607c-12.605,0.535-25.254-0.055-37.883,0.064
		c-8.111,0.078-16.361-0.311-24.289,1.039c-8.078,1.377-13.932-0.619-18.801-6.873c-3.111-3.998-6.76-7.27-12.945-7.588
		c4.627,5.857,9.17,11.041,13.049,16.682c3.936,5.723,7.354,11.818,10.742,17.895c4.012,7.191,4.104,14.918,0.408,21.996
		c-5.898,11.299-12.27,22.393-19.141,33.125c-3.174,4.957-7.826,9.957-14.699,8.385c-6.615-1.514-8.662-7.713-9.27-13.492
		c-0.807-7.666-0.967-15.508-0.328-23.186c0.668-8.02,5.221-14.146,12.121-18.496c2.014-1.27,3.666-3.113,5.482-4.693
		c-0.219-0.422-0.438-0.842-0.656-1.262c-2.334,0.658-4.666,1.316-7.797,2.197c0.447-2.555,0.795-4.531,1.342-7.646
		c-2.988,2.514-5.281,4.393-7.52,6.336c-13.553,11.76-29.398,19.328-49.484,4.49c-0.869-0.641-1.93-1.025-3.078-1.621
		c1.598,14.441,16.85,21.02,40.088,17.25c-0.457,3.213-0.645,6.312-1.453,9.238c-0.283,1.02-2.004,2.043-3.24,2.334
		c-13.912,3.264-15.385,4.885-17.209,19.531c-0.039,0.303-0.299,0.576-0.732,1.375c-15.125,0.178-29.078-3.514-39.506-15.443
		c-1.988-2.275-1.904-7.17-1.381-10.645c0.756-5.023,2.91-9.824,4.211-14.785c0.521-1.996,0.363-4.168-0.592-6.57
		c-1.152,2.746-2.041,5.641-3.51,8.205c-3.109,5.432-6.176,10.949-9.936,15.92c-2.289,3.023-5.791,4.523-10.17,3.193
		c-4.326-1.312-5.832-4.5-6.086-8.176c-0.41-5.963-0.109-11.977-0.109-18.688c7.666,4.508,12.34,3.596,16.807-2.975
		c8.188-12.045,10.043-25.502,7.4-39.547c-0.439-2.332-2.955-4.779-5.146-6.168c-4.119-2.607-4.668-5.621-1.768-9.012
		c2.98-3.482,6.395-6.633,9.881-9.625c2.074-1.781,4.561-1.717,5.484,1.371c1.453,4.857,3.258,9.771,3.619,14.758
		C105.286,124.407,104.851,132.696,104.851,140.323z"/>
	<path fill-rule="evenodd" clip-rule="evenodd" fill="none" d="M216.044,147.7c4.826-1.436,9.176-1.135,13.914,0.865
		c19.959,8.428,39.963,16.781,60.215,24.465c7.666,2.91,16.053,3.902,24.096,5.838c5.26,1.266,10.57,2.705,11.822,9.062
		c1.34,6.803-1.385,12.162-6.975,15.852c-10.105,6.667-21.551,8.375-32.922,5.459c-13.086-3.357-25.896-7.982-38.535-12.824
		c-8.33-3.191-16.18-7.66-24.145-11.754c-1.154-0.592-2.713-2.605-2.445-3.42c3.871-11.727,0.344-22.201-5.018-32.438
		C215.983,148.677,216.044,148.481,216.044,147.7z"/>
	<path fill-rule="evenodd" clip-rule="evenodd" fill="none" d="M211.72,200.03c4.234,10.199,7.535,19.255,7.207,29.369
		c-0.354,10.92-6.434,18.924-17.334,20.348c-18.422,2.406-34.344-2.172-45.111-18.566c-3.447-5.246-7.061-10.559-9.375-16.33
		c-2.877-7.179,0.459-10.933,8.309-10.775c2.715,6.197,4.998,12.589,8.199,18.484c7.375,13.59,24.463,11.234,32.209,1.297
		c4.676-5.998,8.412-12.729,12.592-19.119C209.294,203.392,210.261,202.103,211.72,200.03z"/>
</g>
</svg>
