<?xml version="1.0" encoding="utf-8"?>
<!-- Generator: Adobe Illustrator 16.2.1, SVG Export Plug-In . SVG Version: 6.00 Build 0)  -->
<!DOCTYPE svg PUBLIC "-//W3C//DTD SVG 1.1//EN" "http://www.w3.org/Graphics/SVG/1.1/DTD/svg11.dtd">
<svg version="1.1" id="Layer_1" xmlns="http://www.w3.org/2000/svg" xmlns:xlink="http://www.w3.org/1999/xlink" x="0px" y="0px"
	 width="141.732px" height="141.732px" viewBox="0 0 141.732 141.732" enable-background="new 0 0 141.732 141.732"
	 xml:space="preserve">
<path fill="#F9F9FA" d="M32.812,102.519c0,0,10.787-10.787,12.711-13.003c1.925-2.215,3.499-5.306,4.14-8.454
	c0.642-3.148,4.49-17.785,4.549-19.884c0.058-2.1,0.933-2.682,4.256-3.79c3.324-1.107,12.479-5.072,20.466-6.122
	c7.988-1.05,13.703,1.866,19.65,4.082c5.947,2.215,11.021,4.198,10.262,5.947c-0.758,1.749-2.332,2.273-6.238,1.574
	s-6.064-2.274-11.837-2.332c-5.772-0.059-8.513,0.407-13.469,2.273s-8.688,3.44-7.639,6.414s5.364,7.93,9.737,8.688
	c4.373,0.758,8.688,1.004,11.778-1.132c3.091-2.134,3.906-3.941,5.189-5.633c1.283-1.69,2.741-5.364,5.364-5.072
	c2.625,0.291,5.832-0.351,3.148,5.072c-2.682,5.423-2.389,9.447-5.072,11.429c-2.683,1.983-9.446,5.598-18.718,12.07
	c-9.271,6.472-10.495,8.046-14.867,9.445c-4.374,1.399-6.473,1.05-6.473,1.05l-11.896,12.594L32.812,102.519z"/>
</svg>
