<?xml version="1.0" encoding="utf-8"?>
<!-- Generator: Adobe Illustrator 16.2.1, SVG Export Plug-In . SVG Version: 6.00 Build 0)  -->
<!DOCTYPE svg PUBLIC "-//W3C//DTD SVG 1.1//EN" "http://www.w3.org/Graphics/SVG/1.1/DTD/svg11.dtd">
<svg version="1.1" id="Layer_1" xmlns="http://www.w3.org/2000/svg" xmlns:xlink="http://www.w3.org/1999/xlink" x="0px" y="0px"
	 width="141.732px" height="141.732px" viewBox="0 0 141.732 141.732" enable-background="new 0 0 141.732 141.732"
	 xml:space="preserve">
<g>
	<path fill-rule="evenodd" clip-rule="evenodd" fill="#F9F9FA" d="M63.468,117.736c-11.361-5.238-14.357-15.581-16.514-26.605
		c-1.498-7.652,3.303-12.625,7.066-18.035c0.727-1.044,2.604-1.347,4-1.854c3.711-1.348,7.416-2.731,11.193-3.866
		c1.381-0.416,3.686-0.792,4.289-0.089c1.066,1.239,1.943,3.607,1.451,4.985c-0.693,1.939-2.465,3.745-4.211,5
		c-2.738,1.969-5.863,3.394-8.785,5.118c-2.199,1.3-2.633,3.247-1.268,5.306c2.385,3.597,4.945,7.076,7.482,10.569
		c0.197,0.272,0.783,0.262,1.188,0.383c0.238-0.176,0.475-0.352,0.713-0.526c-1.225-2.217-2.365-4.485-3.707-6.63
		c-0.742-1.188-1.844-2.147-2.74-3.245c-2.506-3.071-2.48-3.296,0.875-5.196c2.932-1.662,5.906-3.252,9.174-5.044
		c-0.045,4.571-0.811,9.534,5.471,10.329c3.758,0.476,5.814-1.145,7.049-4.778c2.896,0.144,5.658,0.28,9.062,0.449
		c-0.344,7.067-0.393,14.71-1.188,22.273c-0.596,5.66-4.07,9.592-9.605,11.457C77.466,117.736,70.468,117.736,63.468,117.736z"/>
	<path fill-rule="evenodd" clip-rule="evenodd" fill="#F9F9FA" d="M64.597,65.037c0.752-3.817,1.523-7.629,2.25-11.45
		c1.584-8.335,3.115-16.681,4.732-25.01c0.652-3.365,1.979-4.546,4.766-4.58c2.947-0.035,4.5,1.496,4.084,4.413
		c-1.693,11.86-3.482,23.706-5.252,35.555c-0.053,0.355-0.299,0.683-0.684,0.339c-2.236,0.512-4.523,0.868-6.699,1.567
		c-4.564,1.465-9.072,3.109-13.812,4.754c-1.193-6.201-2.328-12.192-3.5-18.176c-1.412-7.214-2.848-14.422-4.287-21.63
		c-0.646-3.248,0.027-4.759,2.447-5.375c2.549-0.648,5.096,0.788,5.822,3.57c1.566,6.015,2.986,12.069,4.457,18.109
		c1.338,5.491,2.652,10.987,4.008,16.474c0.125,0.503,0.479,0.949,0.727,1.422C63.968,65.023,64.282,65.03,64.597,65.037z"/>
	<path fill-rule="evenodd" clip-rule="evenodd" fill="#F9F9FA" d="M81.071,62.097c2.836-0.022,4.607,1.731,4.432,4.624
		c-0.316,5.182-0.701,10.36-1.16,15.53c-0.264,2.961-2.17,4.504-4.934,4.234c-2.576-0.252-4.043-2.13-3.846-4.963
		c0.336-4.802,0.672-9.604,1.037-14.404C76.87,63.589,78.2,62.12,81.071,62.097z"/>
	<path fill-rule="evenodd" clip-rule="evenodd" fill="#F9F9FA" d="M86.614,73.997c0.178-2.059,0.225-4.14,0.566-6.17
		c0.398-2.353,2.361-3.713,4.732-3.372c2.289,0.329,3.91,1.573,3.855,4.061c-0.076,3.382-0.258,6.771-0.615,10.133
		c-0.25,2.363-2.395,3.712-4.979,3.457c-2.51-0.248-3.629-1.792-3.688-4.158c-0.031-1.31,0.174-2.625,0.273-3.938
		C86.712,74.005,86.663,74.001,86.614,73.997z"/>
</g>
</svg>
