<?xml version="1.0" encoding="utf-8"?>
<!-- Generator: Adobe Illustrator 16.2.1, SVG Export Plug-In . SVG Version: 6.00 Build 0)  -->
<!DOCTYPE svg PUBLIC "-//W3C//DTD SVG 1.1//EN" "http://www.w3.org/Graphics/SVG/1.1/DTD/svg11.dtd">
<svg version="1.1" id="Layer_1" xmlns="http://www.w3.org/2000/svg" xmlns:xlink="http://www.w3.org/1999/xlink" x="0px" y="0px"
	 width="141.732px" height="141.732px" viewBox="0 0 141.732 141.732" enable-background="new 0 0 141.732 141.732"
	 xml:space="preserve">
<path fill="#F9F9FA" d="M62.046,78.621c0,0,0.613-5.975,0-13.175c-0.613-7.2-2.299-11.336-2.758-18.23
	c-0.459-6.894-1.219-12.106,1.402-12.413c2.621-0.306,3.082,1.226,3.848,4.596c0.766,3.371,2.706,15.166,3.166,17.873
	c0.459,2.707,1.174,4.392,1.174,4.392l0.98-0.047c0,0-1.992-13.022-3.318-19.558c-1.328-6.536-2.451-11.438,0.102-12.051
	c2.553-0.613,2.859,0.51,4.188,5.311c1.327,4.8,5.924,22.775,6.74,23.49c0.817,0.715,1.736,3.575,4.392-2.247
	c2.655-5.821,8.987-23.796,11.03-23.796s3.371,2.757,2.859,5.004c-0.51,2.247-9.498,25.839-9.498,25.839l0.967,0.585
	c0,0,5.773-15.292,6.795-17.743s1.635-5.924,3.574-4.085c1.941,1.838,2.35,4.698,0,13.89c-2.348,9.192-4.084,10.213-4.084,20.222
	c0,10.009,0.918,12.46-0.613,16.545c-1.532,4.085-1.226,12.051-1.226,17.464s0.204,7.251,0.204,7.251H68.685l-0.511-19.915
	c0,0-5.106-2.043-8.272-5.209c-3.166-3.165-6.74-10.621-9.703-13.991c-2.961-3.37-7.557-6.026-7.762-7.967
	c-0.204-1.94,4.801-2.757,7.967-1.327S62.046,78.621,62.046,78.621z"/>
</svg>
