<?xml version="1.0" encoding="utf-8"?>
<!-- Generator: Adobe Illustrator 16.2.1, SVG Export Plug-In . SVG Version: 6.00 Build 0)  -->
<!DOCTYPE svg PUBLIC "-//W3C//DTD SVG 1.1//EN" "http://www.w3.org/Graphics/SVG/1.1/DTD/svg11.dtd">
<svg version="1.1" id="Layer_1" xmlns="http://www.w3.org/2000/svg" xmlns:xlink="http://www.w3.org/1999/xlink" x="0px" y="0px"
	 width="141.732px" height="141.732px" viewBox="0 0 141.732 141.732" enable-background="new 0 0 141.732 141.732"
	 xml:space="preserve">
<path fill-rule="evenodd" clip-rule="evenodd" fill="#F9F9FA" d="M62.06,117.736c-9.454-2.686-13.266-10.655-16.862-18.549
	c-2.134-4.683-3.451-9.758-4.868-14.733c-0.369-1.294,0.023-2.955,0.482-4.307c1.297-3.822,2.855-7.556,4.221-11.356
	c0.787-2.189,2.498-2.96,4.732-1.84c2.566,1.286,3.271,3.61,2.905,6.21c-0.446,3.17-1.237,6.289-1.745,9.452
	c-0.559,3.477,0.541,5.632,3.688,7.084c0.064-1.109,0.168-2.079,0.169-3.048c0.012-13.519-0.001-27.038,0.014-40.556
	c0.004-3.727,1.327-5.426,4.199-5.533c3.045-0.114,4.623,1.528,4.643,5.058c0.043,8.13-0.024,16.261,0.059,24.39
	c0.012,1.15,0.611,2.293,0.939,3.44c0.389-1.122,1.109-2.241,1.117-3.366c0.083-11.344,0.037-22.688,0.056-34.033
	c0.005-3.626,1.218-5.106,4.124-5.199c3.006-0.097,4.559,1.467,4.566,4.795c0.029,11.534,0.012,23.067,0.013,34.6
	c0,1.04-0.071,2.09,0.054,3.115c0.057,0.456,0.521,0.86,0.8,1.289c0.425-0.416,1.063-0.762,1.226-1.263
	c0.223-0.688,0.102-1.494,0.102-2.25c0.005-11.25,0.027-22.5-0.008-33.75c-0.008-2.604,1.173-4.165,3.71-4.486
	c2.349-0.298,4.06,0.767,4.779,3.061c0.245,0.782,0.135,1.686,0.135,2.534c0.007,11.625-0.007,23.251,0.026,34.876
	c0.004,0.992,0.316,1.984,0.484,2.978c0.371,0.012,0.742,0.023,1.112,0.035c0.181-1.079,0.514-2.156,0.521-3.237
	c0.047-7.465-0.018-14.931,0.049-22.396c0.029-3.458,2.846-5.436,5.918-4.26c1.887,0.723,2.718,2.157,2.713,4.198
	c-0.039,16.92,0.078,33.841-0.155,50.757c-0.058,4.233,0.167,8.903-3.327,12.245c-1.652,1.58-3.735,2.71-5.623,4.043
	C78.704,117.736,70.382,117.736,62.06,117.736z"/>
</svg>
