<?xml version="1.0" encoding="utf-8"?>
<!-- Generator: Adobe Illustrator 16.2.1, SVG Export Plug-In . SVG Version: 6.00 Build 0)  -->
<!DOCTYPE svg PUBLIC "-//W3C//DTD SVG 1.1//EN" "http://www.w3.org/Graphics/SVG/1.1/DTD/svg11.dtd">
<svg version="1.1" id="Layer_1" xmlns="http://www.w3.org/2000/svg" xmlns:xlink="http://www.w3.org/1999/xlink" x="0px" y="0px"
	 width="141.732px" height="141.732px" viewBox="0 0 141.732 141.732" enable-background="new 0 0 141.732 141.732"
	 xml:space="preserve">
<g>
	<path fill-rule="evenodd" clip-rule="evenodd" fill="#F9F9FA" d="M65.216,117.736c-11.058-5.388-15.885-15.401-19.948-26.207
		c-2.419-6.434-2.526-12.289,1.154-18.214c0.962-1.548,1.304-3.517,1.764-5.335c0.903-3.58,3.673-4.493,6.505-2.068
		c2.645,2.263,2.229,5.231,1.771,8.136c-0.425,2.693-1.19,5.336-1.562,8.035c-0.658,4.781,0.11,6.057,4.839,7.211
		c6.263,1.529,11.794,4.021,15.128,9.909c0.734,1.297,1.201,2.745,1.926,4.05c0.281,0.506,0.932,0.806,1.414,1.198
		c0.299-0.199,0.596-0.399,0.895-0.599c-0.889-2.074-1.561-4.277-2.707-6.195c-3.305-5.523-8.49-8.479-14.621-9.778
		c-2.498-0.53-3.333-1.644-2.795-3.302c2.975-0.196,5.633-0.372,8.611-0.568c2.674,4.859,6.055,5.65,10.021,2.433
		c2.715,0.736,4.91,1.752,7.141,1.832c2.822,0.101,4.145-2.206,4.805-4.073c2.883,0.207,5.545,0.399,8.414,0.605
		c0,5.924,0.451,12.607-0.129,19.199c-0.568,6.471-3.922,11.507-10.494,13.731C79.97,117.736,72.593,117.736,65.216,117.736z"/>
	<path fill-rule="evenodd" clip-rule="evenodd" fill="#F9F9FA" d="M69.204,70.347c0-3.682-0.033-7.365,0.012-11.046
		c0.035-2.957,1.561-4.555,4.211-4.553c2.574,0.002,4.018,1.41,4.049,4.363c0.076,7.647,0.08,15.295,0.002,22.942
		c-0.027,2.835-1.633,4.346-4.166,4.317c-2.461-0.026-4.055-1.674-4.094-4.411C69.163,78.09,69.204,74.218,69.204,70.347z"/>
	<path fill-rule="evenodd" clip-rule="evenodd" fill="#F9F9FA" d="M87.892,71.742c0,3.393,0.023,6.785-0.008,10.178
		c-0.029,3.193-1.268,4.63-3.959,4.696c-2.828,0.069-4.23-1.22-4.277-4.366c-0.104-7.066-0.123-14.136-0.055-21.203
		c0.027-2.83,1.635-4.369,4.131-4.378c2.562-0.009,4.133,1.68,4.168,4.613c0.043,3.486,0.01,6.974,0.01,10.46
		C87.897,71.742,87.896,71.742,87.892,71.742z"/>
	<path fill-rule="evenodd" clip-rule="evenodd" fill="#F9F9FA" d="M58.95,70.351c0-2.742-0.031-5.483,0.008-8.225
		c0.039-2.728,1.637-4.424,4.063-4.407c2.297,0.016,3.946,1.671,3.968,4.211c0.053,5.672,0.059,11.345-0.008,17.017
		c-0.029,2.562-1.691,4.143-4.049,4.119c-2.34-0.024-3.914-1.632-3.968-4.207C58.905,76.024,58.951,73.187,58.95,70.351z"/>
	<path fill-rule="evenodd" clip-rule="evenodd" fill="#F9F9FA" d="M90.114,73.752c0-2.076-0.061-4.155,0.018-6.229
		c0.09-2.407,1.561-3.543,3.838-3.649c2.334-0.107,4.082,1.379,4.139,3.68c0.1,4.057,0.125,8.12-0.014,12.174
		c-0.082,2.383-1.639,3.449-3.98,3.445c-2.352-0.004-3.803-1.109-3.973-3.477C90.001,77.725,90.114,75.734,90.114,73.752z"/>
</g>
</svg>
